<svg xmlns="http://www.w3.org/2000/svg" viewBox="0 0 455.04 67.13"><defs><style>.cls-1{fill:#161616;}.cls-2{fill:#f69822;}.cls-3{fill:#87bc41;}.cls-4{fill:#86bb41;}</style></defs><g id="Layer_2" data-name="Layer 2"><g id="Layer_1-2" data-name="Layer 1"><rect class="cls-1" x="196.74" y="1.63" width="0.92" height="65.5"/><path class="cls-2" d="M53.31,41.87A18.12,18.12,0,0,1,47.8,55.15a18.12,18.12,0,0,1-13.27,5.51,18.7,18.7,0,0,1-7.88-1.82,18.66,18.66,0,0,1-7.87,1.82A18.12,18.12,0,0,1,5.51,55.15,18.12,18.12,0,0,1,0,41.87V33.94a10.51,10.51,0,0,1,3.21-7.7A10.49,10.49,0,0,1,10.9,23a10.54,10.54,0,0,1,7.94,3.45A10.14,10.14,0,0,1,26.65,23a10.56,10.56,0,0,1,7.88,3.39,10.84,10.84,0,0,1,15.57-.18,10.51,10.51,0,0,1,3.21,7.7Zm-7,0V33.94A3.93,3.93,0,0,0,42.4,30a3.86,3.86,0,0,0-2.81,1.15,3.75,3.75,0,0,0-1.18,2.79v7.93a3.77,3.77,0,0,1-1.15,2.73,3.82,3.82,0,0,1-5.46,0,3.77,3.77,0,0,1-1.15-2.73V33.94a3.75,3.75,0,0,0-1.18-2.79A3.9,3.9,0,0,0,26.65,30a3.93,3.93,0,0,0-4,4v7.87A3.74,3.74,0,0,1,21.5,44.6a3.69,3.69,0,0,1-2.72,1.15,3.73,3.73,0,0,1-2.73-1.15,3.77,3.77,0,0,1-1.15-2.73V33.94a4,4,0,0,0-4-4,3.71,3.71,0,0,0-2.78,1.18A3.9,3.9,0,0,0,7,33.94v7.93A11.83,11.83,0,0,0,18.78,53.69a11.44,11.44,0,0,0,7.87-3,11.48,11.48,0,0,0,7.88,3A11.83,11.83,0,0,0,46.34,41.87Z"/><path class="cls-2" d="M78,49.75a10.46,10.46,0,0,1-3.24,7.7,10.92,10.92,0,0,1-18.63-7.7V36.84a11.52,11.52,0,0,1,1.46-5.45A10.86,10.86,0,0,1,59.3,18.24a10.83,10.83,0,0,1,15.39,0,10.89,10.89,0,0,1,1.76,13.15A10.5,10.5,0,0,1,78,36.84ZM70.94,26a3.91,3.91,0,0,0-1.16-2.82,3.88,3.88,0,0,0-5.57,0A3.9,3.9,0,0,0,63.06,26a3.8,3.8,0,0,0,1.15,2.79A3.84,3.84,0,0,0,67,29.94,3.94,3.94,0,0,0,70.94,26ZM71,49.75V36.84a3.76,3.76,0,0,0-1.18-2.78A3.9,3.9,0,0,0,67,32.91a3.93,3.93,0,0,0-3.94,3.93V49.75A3.93,3.93,0,0,0,67,53.69a3.9,3.9,0,0,0,2.82-1.15A3.79,3.79,0,0,0,71,49.75Z"/><path class="cls-2" d="M113.22,49.69a11,11,0,0,1-10.91,11h-2.9A18.81,18.81,0,0,1,80.63,41.87V26a11,11,0,0,1,11-10.91,10.3,10.3,0,0,1,6.48,2.15A10.85,10.85,0,0,1,101.89,23h.42a11,11,0,0,1,10.91,10.91,10.31,10.31,0,0,1-3.51,7.93A10.53,10.53,0,0,1,113.22,49.69Zm-7,0a3.8,3.8,0,0,0-1.15-2.79,3.84,3.84,0,0,0-2.79-1.15h-2.9a3.93,3.93,0,0,1-3.88-3.88v-4h6.78a4,4,0,0,0,0-7.93H95.53V26a4,4,0,0,0-7.94,0V41.87A11.85,11.85,0,0,0,99.41,53.69h2.9a3.8,3.8,0,0,0,2.79-1.15A3.87,3.87,0,0,0,106.25,49.69Z"/><path class="cls-2" d="M146.19,49.94A10.29,10.29,0,0,1,136,60.23h-2.72a17.67,17.67,0,0,1-17.61-17.62V27.72a10.28,10.28,0,0,1,10.28-10.23,9.7,9.7,0,0,1,6.08,2,10.13,10.13,0,0,1,3.58,5.37H136a10.28,10.28,0,0,1,10.23,10.23,9.7,9.7,0,0,1-3.29,7.44A9.89,9.89,0,0,1,146.19,49.94Zm-6.53,0a3.69,3.69,0,0,0-3.7-3.69h-2.72a3.69,3.69,0,0,1-3.64-3.64V38.86H136a3.56,3.56,0,0,0,2.62-1.08,3.63,3.63,0,0,0,1.08-2.67,3.69,3.69,0,0,0-3.7-3.7H129.6V27.72A3.69,3.69,0,0,0,125.91,24a3.63,3.63,0,0,0-2.67,1.08,3.56,3.56,0,0,0-1.08,2.61V42.61a11.11,11.11,0,0,0,11.08,11.08H136a3.56,3.56,0,0,0,2.62-1.08A3.63,3.63,0,0,0,139.66,49.94Z"/><path class="cls-2" d="M183.74,35.11a16.88,16.88,0,0,1-2,8,17.83,17.83,0,0,1-5.42,6.26v.62a10.23,10.23,0,1,1-20.46,0v-.62a17.83,17.83,0,0,1-5.42-6.26,16.88,16.88,0,0,1-2-8V27.72a10.28,10.28,0,0,1,10.22-10.23,9.82,9.82,0,0,1,7.39,3.24,10.09,10.09,0,0,1,14.6-.23,9.85,9.85,0,0,1,3,7.22Zm-6.53,0V27.72A3.69,3.69,0,0,0,173.52,24a3.66,3.66,0,0,0-2.65,1.08,3.54,3.54,0,0,0-1.1,2.61v7.39a3.53,3.53,0,0,1-1.06,2.56,3.62,3.62,0,0,1-5.14,0,3.51,3.51,0,0,1-1.08-2.56V27.72a3.5,3.5,0,0,0-1.1-2.61A3.66,3.66,0,0,0,158.74,24a3.69,3.69,0,0,0-3.69,3.69v7.39a11.19,11.19,0,0,0,7.33,10.45v4.38a3.58,3.58,0,0,0,1.11,2.67,3.77,3.77,0,0,0,5.28,0,3.58,3.58,0,0,0,1.11-2.67V45.56a11.19,11.19,0,0,0,7.33-10.45Z"/><path class="cls-3" d="M58.38,10.63v4.74A26.45,26.45,0,0,1,67,13.48a26.45,26.45,0,0,1,8.58,1.89V10.56a21.44,21.44,0,0,0-8.65-2.3,20,20,0,0,0-8.51,2.37Z"/><path class="cls-3" d="M80.39,9.5l1.71-.92-1.71-1V7.19S80.87,4.75,78.14,6a.51.51,0,0,0-.25.23L66.63,0,51.83,8.48,57.42,11v-.82a22.34,22.34,0,0,1,9.49-2.63,24,24,0,0,1,9.65,2.56v1.43L79.64,9.9v6.71h-1V19L80,18.05,81.5,19V16.61H80.39V9.5Zm-.75-2.73v.45l-.9-.5c.33-.22.9-.52.9,0Zm-.3,2.63a.72.72,0,1,1,.72-.72.72.72,0,0,1-.72.72Z"/><path class="cls-4" d="M214.84,18.81v4.94h6.41v3h-6.41v5h8.24v3.11H210.84V15.69h12.24v3.12Z"/><path class="cls-4" d="M237.2,15.16V34.92H235a.85.85,0,0,1-.9-.64l-.3-1.19a8.31,8.31,0,0,1-.87.82,5.83,5.83,0,0,1-1,.65,4.68,4.68,0,0,1-1.14.41,5.5,5.5,0,0,1-1.32.15,4.51,4.51,0,0,1-2-.46,4.63,4.63,0,0,1-1.58-1.36,6.7,6.7,0,0,1-1-2.2,10.65,10.65,0,0,1-.37-3,9.29,9.29,0,0,1,.42-2.84A6.75,6.75,0,0,1,226,23a5.41,5.41,0,0,1,1.86-1.5,5.31,5.31,0,0,1,2.41-.55,4.53,4.53,0,0,1,1.87.34,5,5,0,0,1,1.39.9V15.16Zm-3.65,9.65a2.94,2.94,0,0,0-1.12-.83,3.43,3.43,0,0,0-1.28-.24,2.85,2.85,0,0,0-1.21.25,2.41,2.41,0,0,0-.93.79,3.94,3.94,0,0,0-.6,1.37,7.75,7.75,0,0,0-.22,2,8.86,8.86,0,0,0,.18,1.93,3.86,3.86,0,0,0,.49,1.29,1.94,1.94,0,0,0,.79.7,2.36,2.36,0,0,0,1,.22,3.13,3.13,0,0,0,1.62-.38,4.79,4.79,0,0,0,1.24-1.09Z"/><path class="cls-4" d="M252.23,21.26V34.92H250a.85.85,0,0,1-.9-.64l-.24-1a9.42,9.42,0,0,1-.85.73,5.52,5.52,0,0,1-.93.57A5.28,5.28,0,0,1,246,35a5.45,5.45,0,0,1-1.25.13,5,5,0,0,1-2-.38,4.12,4.12,0,0,1-1.45-1.07,4.68,4.68,0,0,1-.89-1.65,6.9,6.9,0,0,1-.3-2.09V21.26h3.65v8.68a2.69,2.69,0,0,0,.53,1.77,1.89,1.89,0,0,0,1.55.63,3.26,3.26,0,0,0,1.45-.34,5.23,5.23,0,0,0,1.28-.92V21.26Z"/><path class="cls-4" d="M265.16,24.31a1.21,1.21,0,0,1-.32.32.71.71,0,0,1-.45.11,1,1,0,0,1-.51-.15l-.56-.33a4.21,4.21,0,0,0-.76-.33,3.35,3.35,0,0,0-1.08-.15,3.2,3.2,0,0,0-1.43.3,2.64,2.64,0,0,0-1,.85,4,4,0,0,0-.59,1.35,8.12,8.12,0,0,0-.19,1.79,5.27,5.27,0,0,0,.84,3.21,2.73,2.73,0,0,0,2.3,1.11,3.63,3.63,0,0,0,.87-.09,3.43,3.43,0,0,0,.64-.21,2.7,2.7,0,0,0,.47-.3l.37-.29a2.32,2.32,0,0,1,.36-.22,1,1,0,0,1,.41-.08.76.76,0,0,1,.66.32l1.05,1.32A6.49,6.49,0,0,1,265,34a6.12,6.12,0,0,1-1.37.7,7.23,7.23,0,0,1-1.44.36,10.16,10.16,0,0,1-1.44.1,6.21,6.21,0,0,1-2.39-.47,5.6,5.6,0,0,1-2-1.37A6.48,6.48,0,0,1,255,31.06a8.41,8.41,0,0,1-.49-3,8.57,8.57,0,0,1,.43-2.78,6.25,6.25,0,0,1,1.29-2.23,6,6,0,0,1,2.1-1.48,7.41,7.41,0,0,1,2.89-.53,7.1,7.1,0,0,1,2.75.5A6.71,6.71,0,0,1,266.12,23Z"/><path class="cls-4" d="M267.77,23.15a8.28,8.28,0,0,1,2.67-1.62,9,9,0,0,1,3.15-.54,5.76,5.76,0,0,1,2.18.4,4.81,4.81,0,0,1,1.63,1.11,4.72,4.72,0,0,1,1,1.69,6.16,6.16,0,0,1,.36,2.14v8.59h-1.67a1.63,1.63,0,0,1-.78-.15,1,1,0,0,1-.45-.6l-.29-.88c-.34.3-.68.57-1,.8a5.58,5.58,0,0,1-1,.57,5.13,5.13,0,0,1-1.11.35,6.6,6.6,0,0,1-1.32.12,5.33,5.33,0,0,1-1.64-.24,3.69,3.69,0,0,1-1.28-.7,3.23,3.23,0,0,1-.83-1.18,4.24,4.24,0,0,1-.29-1.61,3.23,3.23,0,0,1,.39-1.51,3.65,3.65,0,0,1,1.32-1.38,8.34,8.34,0,0,1,2.49-1,17.66,17.66,0,0,1,3.9-.45v-.71a2.76,2.76,0,0,0-.54-1.88,2,2,0,0,0-1.57-.61,3.82,3.82,0,0,0-1.26.18,6.09,6.09,0,0,0-.88.39l-.71.38a1.55,1.55,0,0,1-.76.18,1,1,0,0,1-.65-.19,1.88,1.88,0,0,1-.43-.46Zm7.45,6.06a16.55,16.55,0,0,0-2.23.23,5.64,5.64,0,0,0-1.41.43,1.86,1.86,0,0,0-.74.61,1.28,1.28,0,0,0-.22.73,1.34,1.34,0,0,0,.44,1.13,2.05,2.05,0,0,0,1.24.33,3.58,3.58,0,0,0,1.59-.33,4.69,4.69,0,0,0,1.33-1Z"/><path class="cls-4" d="M295.68,34.92H292v-11h-6V31a1.38,1.38,0,0,0,.27.9.94.94,0,0,0,.77.33,1.44,1.44,0,0,0,.45-.06,1.63,1.63,0,0,0,.32-.13l.25-.13a.46.46,0,0,1,.23-.06.47.47,0,0,1,.27.07.79.79,0,0,1,.21.25l1.1,1.75a5.82,5.82,0,0,1-1.71.9,6.6,6.6,0,0,1-2,.3,4.62,4.62,0,0,1-1.64-.27,3.35,3.35,0,0,1-1.21-.77,3.5,3.5,0,0,1-.74-1.22,4.83,4.83,0,0,1-.25-1.62V23.88H281a.67.67,0,0,1-.71-.74V21.71l2.19-.4.74-3.54a.75.75,0,0,1,.81-.59H286v4.16h9.7Zm.57-17.57a2.11,2.11,0,0,1-.19.86,2.19,2.19,0,0,1-.5.7,2.32,2.32,0,0,1-.73.48,2.35,2.35,0,0,1-.89.17,2.22,2.22,0,0,1-.85-.17,2.34,2.34,0,0,1-.71-.48,2.16,2.16,0,0,1-.49-.7,2.17,2.17,0,0,1,0-1.73,2.31,2.31,0,0,1,.49-.71,2.34,2.34,0,0,1,.71-.48,2.06,2.06,0,0,1,.85-.18,2.18,2.18,0,0,1,.89.18,2.32,2.32,0,0,1,.73.48,2.34,2.34,0,0,1,.5.71A2.13,2.13,0,0,1,296.25,17.35Z"/><path class="cls-4" d="M305,21.05a7.59,7.59,0,0,1,2.8.49,6,6,0,0,1,2.16,1.4,6.21,6.21,0,0,1,1.39,2.2,9,9,0,0,1,0,5.87,6.39,6.39,0,0,1-1.39,2.22,6.25,6.25,0,0,1-2.16,1.4,8.27,8.27,0,0,1-5.61,0,6.29,6.29,0,0,1-2.17-1.4,6.56,6.56,0,0,1-1.4-2.22,9,9,0,0,1,0-5.87,6.38,6.38,0,0,1,1.4-2.2,6,6,0,0,1,2.17-1.4A7.64,7.64,0,0,1,305,21.05Zm0,11.33a2.63,2.63,0,0,0,2.32-1.08,5.57,5.57,0,0,0,.76-3.22,5.54,5.54,0,0,0-.76-3.2A2.63,2.63,0,0,0,305,23.8a2.67,2.67,0,0,0-2.35,1.08,5.54,5.54,0,0,0-.76,3.2,5.57,5.57,0,0,0,.76,3.22A2.67,2.67,0,0,0,305,32.38Z"/><path class="cls-4" d="M317.5,22.85a8.22,8.22,0,0,1,.85-.73,6,6,0,0,1,.94-.57,5.28,5.28,0,0,1,1.08-.37,5.45,5.45,0,0,1,1.25-.13,4.87,4.87,0,0,1,2,.38A4,4,0,0,1,325,22.51a4.4,4.4,0,0,1,.89,1.64,6.9,6.9,0,0,1,.3,2.09v8.68h-3.64V26.24a2.69,2.69,0,0,0-.53-1.77,2,2,0,0,0-1.57-.63,3.12,3.12,0,0,0-1.44.34,5,5,0,0,0-1.29.92v9.82h-3.65V21.26h2.25a.88.88,0,0,1,.91.64Z"/><path class="cls-4" d="M328.83,23.15a8.24,8.24,0,0,1,2.66-1.62,9,9,0,0,1,3.15-.54,5.72,5.72,0,0,1,2.18.4,4.68,4.68,0,0,1,2.66,2.8,6.16,6.16,0,0,1,.36,2.14v8.59h-1.67a1.65,1.65,0,0,1-.79-.15,1,1,0,0,1-.44-.6l-.29-.88c-.35.3-.68.57-1,.8a5.25,5.25,0,0,1-1,.57,4.88,4.88,0,0,1-1.1.35,6.6,6.6,0,0,1-1.32.12,5.28,5.28,0,0,1-1.64-.24,3.6,3.6,0,0,1-1.28-.7,3.12,3.12,0,0,1-.83-1.18,4.24,4.24,0,0,1-.29-1.61,3.34,3.34,0,0,1,.38-1.51,3.81,3.81,0,0,1,1.32-1.38,8.34,8.34,0,0,1,2.49-1,17.73,17.73,0,0,1,3.9-.45v-.71a2.76,2.76,0,0,0-.54-1.88,2,2,0,0,0-1.56-.61,3.74,3.74,0,0,0-1.26.18,5.63,5.63,0,0,0-.88.39l-.71.38a1.59,1.59,0,0,1-.77.18,1,1,0,0,1-.64-.19,1.71,1.71,0,0,1-.43-.46Zm7.44,6.06a16.38,16.38,0,0,0-2.22.23,5.64,5.64,0,0,0-1.41.43,1.8,1.8,0,0,0-.74.61,1.28,1.28,0,0,0-.22.73,1.31,1.31,0,0,0,.44,1.13,2.05,2.05,0,0,0,1.24.33,3.51,3.51,0,0,0,1.58-.33,4.55,4.55,0,0,0,1.33-1Z"/><path class="cls-4" d="M346.38,15.16V34.92h-3.65V15.16Z"/><path class="cls-4" d="M360.23,34.92h-4V15.69h4Z"/><path class="cls-4" d="M367,22.85a8.22,8.22,0,0,1,.85-.73,6,6,0,0,1,.94-.57,5.08,5.08,0,0,1,1.08-.37,5.45,5.45,0,0,1,1.25-.13,4.87,4.87,0,0,1,2,.38,4,4,0,0,1,1.45,1.08,4.4,4.4,0,0,1,.89,1.64,6.9,6.9,0,0,1,.3,2.09v8.68H372V26.24a2.69,2.69,0,0,0-.53-1.77,2,2,0,0,0-1.57-.63,3.12,3.12,0,0,0-1.44.34,5,5,0,0,0-1.29.92v9.82h-3.65V21.26h2.25a.88.88,0,0,1,.91.64Z"/><path class="cls-4" d="M387.07,24.07a.92.92,0,0,1-.29.32.75.75,0,0,1-.42.1,1.19,1.19,0,0,1-.54-.13l-.63-.28a5.5,5.5,0,0,0-.79-.29,3.46,3.46,0,0,0-1-.13A2.31,2.31,0,0,0,382,24a1.15,1.15,0,0,0-.49,1,.9.9,0,0,0,.28.69,2.39,2.39,0,0,0,.73.49,11.07,11.07,0,0,0,1,.38l1.2.39a12.57,12.57,0,0,1,1.2.49,4.22,4.22,0,0,1,1,.7,3.1,3.1,0,0,1,.74,1,3.44,3.44,0,0,1,.27,1.43,4.6,4.6,0,0,1-.36,1.83,3.92,3.92,0,0,1-1.07,1.45,4.9,4.9,0,0,1-1.75,1,7.66,7.66,0,0,1-2.41.34A8.16,8.16,0,0,1,381,35a9,9,0,0,1-1.31-.36,8.35,8.35,0,0,1-1.17-.54,5.22,5.22,0,0,1-.94-.66l.85-1.36a1,1,0,0,1,.93-.51,1.19,1.19,0,0,1,.61.17l.62.35a4.9,4.9,0,0,0,.82.36,3.53,3.53,0,0,0,1.17.17,3,3,0,0,0,.91-.12,1.71,1.71,0,0,0,.63-.33,1.27,1.27,0,0,0,.46-1,1,1,0,0,0-.29-.73,2.46,2.46,0,0,0-.74-.5,6.67,6.67,0,0,0-1.05-.38l-1.21-.39a10.62,10.62,0,0,1-1.21-.5,4.07,4.07,0,0,1-1.05-.74,3.44,3.44,0,0,1-.74-1.09,3.92,3.92,0,0,1-.28-1.58,4,4,0,0,1,.33-1.61,3.86,3.86,0,0,1,1-1.34,4.87,4.87,0,0,1,1.65-.93,6.94,6.94,0,0,1,2.29-.34,7.26,7.26,0,0,1,2.65.47,5.84,5.84,0,0,1,2,1.25Z"/><path class="cls-4" d="M404.54,34.92h-3.65v-11h-6.05V31a1.38,1.38,0,0,0,.27.9.94.94,0,0,0,.77.33,1.44,1.44,0,0,0,.45-.06,1.63,1.63,0,0,0,.32-.13l.25-.13a.46.46,0,0,1,.23-.06.47.47,0,0,1,.27.07.79.79,0,0,1,.21.25l1.1,1.75a5.82,5.82,0,0,1-1.71.9,6.6,6.6,0,0,1-2,.3,4.66,4.66,0,0,1-1.64-.27,3.35,3.35,0,0,1-1.21-.77,3.5,3.5,0,0,1-.74-1.22,4.83,4.83,0,0,1-.25-1.62V23.88H389.9a.73.73,0,0,1-.5-.18.72.72,0,0,1-.21-.56V21.71l2.19-.4.74-3.54a.75.75,0,0,1,.81-.59h1.91v4.16h9.7Zm.57-17.57a2.11,2.11,0,0,1-.19.86,2.19,2.19,0,0,1-.5.7,2.39,2.39,0,0,1-.72.48,2.44,2.44,0,0,1-.9.17,2.22,2.22,0,0,1-.85-.17,2.34,2.34,0,0,1-.71-.48,2.16,2.16,0,0,1-.49-.7,2.29,2.29,0,0,1,0-1.73,2.31,2.31,0,0,1,.49-.71,2.34,2.34,0,0,1,.71-.48,2.06,2.06,0,0,1,.85-.18,2.26,2.26,0,0,1,.9.18,2.39,2.39,0,0,1,.72.48,2.34,2.34,0,0,1,.5.71A2.13,2.13,0,0,1,405.11,17.35Z"/><path class="cls-4" d="M412.38,35.13a4.58,4.58,0,0,1-1.64-.27,3.35,3.35,0,0,1-1.21-.77,3.5,3.5,0,0,1-.74-1.22,4.83,4.83,0,0,1-.25-1.62V23.88h-1.29a.71.71,0,0,1-.49-.18.72.72,0,0,1-.21-.56V21.71l2.19-.4.74-3.54a.75.75,0,0,1,.81-.59h1.91v4.16h3.52v2.54H412.2V31a1.38,1.38,0,0,0,.27.9.94.94,0,0,0,.77.33,1.44,1.44,0,0,0,.45-.06,1.63,1.63,0,0,0,.32-.13l.25-.13a.46.46,0,0,1,.23-.06.44.44,0,0,1,.26.07.79.79,0,0,1,.21.25l1.1,1.75a5.65,5.65,0,0,1-1.7.9A6.6,6.6,0,0,1,412.38,35.13Z"/><path class="cls-4" d="M429.66,21.26V34.92h-2.25a.85.85,0,0,1-.9-.64l-.24-1a9.42,9.42,0,0,1-.85.73,5.23,5.23,0,0,1-.94.57,5,5,0,0,1-1.07.37,5.45,5.45,0,0,1-1.25.13,5,5,0,0,1-2-.38,4.12,4.12,0,0,1-1.45-1.07,4.68,4.68,0,0,1-.89-1.65,6.9,6.9,0,0,1-.3-2.09V21.26h3.65v8.68a2.69,2.69,0,0,0,.53,1.77,1.88,1.88,0,0,0,1.55.63,3.26,3.26,0,0,0,1.45-.34,5.23,5.23,0,0,0,1.28-.92V21.26Z"/><path class="cls-4" d="M437.4,35.13a4.68,4.68,0,0,1-1.65-.27,3.31,3.31,0,0,1-1.2-.77,3.23,3.23,0,0,1-.74-1.22,4.83,4.83,0,0,1-.26-1.62V23.88h-1.28a.73.73,0,0,1-.5-.18.71.71,0,0,1-.2-.56V21.71l2.18-.4.75-3.54a.73.73,0,0,1,.8-.59h1.91v4.16h3.53v2.54h-3.53V31a1.38,1.38,0,0,0,.27.9,1,1,0,0,0,.78.33,1.53,1.53,0,0,0,.45-.06,1.93,1.93,0,0,0,.32-.13l.24-.13a.49.49,0,0,1,.23-.06.45.45,0,0,1,.27.07.79.79,0,0,1,.21.25l1.1,1.75a5.59,5.59,0,0,1-1.71.9A6.53,6.53,0,0,1,437.4,35.13Z"/><path class="cls-4" d="M445.48,28.65a4.31,4.31,0,0,0,1.09,2.81,3.35,3.35,0,0,0,2.41.89,4.16,4.16,0,0,0,1.3-.18,5.91,5.91,0,0,0,1-.4l.75-.39a1.43,1.43,0,0,1,.67-.18.77.77,0,0,1,.67.32l1.06,1.32A5.9,5.9,0,0,1,453.11,34a6.52,6.52,0,0,1-1.46.7,8.18,8.18,0,0,1-1.52.36,10.93,10.93,0,0,1-1.48.1,7.49,7.49,0,0,1-2.67-.47,6,6,0,0,1-2.16-1.39A6.46,6.46,0,0,1,442.37,31a8.54,8.54,0,0,1-.53-3.16,7.61,7.61,0,0,1,.45-2.63,6.24,6.24,0,0,1,3.41-3.6,7.08,7.08,0,0,1,2.79-.53,6.8,6.8,0,0,1,2.42.42,5.24,5.24,0,0,1,1.9,1.21,5.45,5.45,0,0,1,1.25,1.95,7.51,7.51,0,0,1,.44,2.65,4.22,4.22,0,0,1,0,.67,1.15,1.15,0,0,1-.13.43.51.51,0,0,1-.25.21,1.22,1.22,0,0,1-.41.06Zm5.75-2.17a3.93,3.93,0,0,0-.15-1.09,2.51,2.51,0,0,0-.49-.91,2.38,2.38,0,0,0-.83-.63,3,3,0,0,0-1.21-.23,2.78,2.78,0,0,0-2.05.74,3.72,3.72,0,0,0-1,2.12Z"/><path class="cls-4" d="M230.05,41.34V58.92h-3.21V48.13c0-.23,0-.47,0-.73s0-.52.06-.79l-5,9.54a1.36,1.36,0,0,1-1.28.78h-.5a1.37,1.37,0,0,1-.76-.2,1.47,1.47,0,0,1-.52-.58l-5.05-9.58c0,.29,0,.56.06.82s0,.51,0,.74V58.92h-3.2V41.34h3.17a1,1,0,0,1,.32.07.83.83,0,0,1,.26.17,1.47,1.47,0,0,1,.22.32l4.92,9.38c.15.28.29.57.43.87s.26.61.38.92c.12-.32.25-.64.38-.94s.28-.61.43-.89l4.88-9.34a1.47,1.47,0,0,1,.23-.32.83.83,0,0,1,.26-.17,1.07,1.07,0,0,1,.32-.07h3.18Z"/><path class="cls-4" d="M232.69,48.16a7.61,7.61,0,0,1,2.44-1.48,8.18,8.18,0,0,1,2.88-.49,5.19,5.19,0,0,1,2,.36,4.14,4.14,0,0,1,1.49,1,4.42,4.42,0,0,1,.94,1.55,5.6,5.6,0,0,1,.33,2v7.85h-1.53a1.57,1.57,0,0,1-.72-.13,1,1,0,0,1-.4-.56l-.27-.8a10.84,10.84,0,0,1-.92.73,4.85,4.85,0,0,1-.91.52,4.6,4.6,0,0,1-1,.33,6.36,6.36,0,0,1-1.21.1,5,5,0,0,1-1.5-.21,3.5,3.5,0,0,1-1.17-.65,2.94,2.94,0,0,1-.76-1.07,4,4,0,0,1-.26-1.48,3,3,0,0,1,.35-1.38,3.39,3.39,0,0,1,1.2-1.26,7.92,7.92,0,0,1,2.28-.93,15.6,15.6,0,0,1,3.57-.42v-.64a2.55,2.55,0,0,0-.5-1.73,1.84,1.84,0,0,0-1.43-.55,3.44,3.44,0,0,0-1.15.17,4.58,4.58,0,0,0-.8.35l-.65.35a1.45,1.45,0,0,1-.7.16,1,1,0,0,1-.59-.17,1.55,1.55,0,0,1-.39-.42Zm6.81,5.54a15.92,15.92,0,0,0-2,.21,5,5,0,0,0-1.29.39,1.75,1.75,0,0,0-.67.56,1.15,1.15,0,0,0-.2.67,1.21,1.21,0,0,0,.4,1,1.87,1.87,0,0,0,1.13.3,3.26,3.26,0,0,0,1.45-.3,4.12,4.12,0,0,0,1.22-.92Z"/><path class="cls-4" d="M248.48,47.88a8,8,0,0,1,.78-.66,5,5,0,0,1,.86-.52,4.36,4.36,0,0,1,1-.34,5.14,5.14,0,0,1,1.15-.12,4.28,4.28,0,0,1,1.8.35,3.63,3.63,0,0,1,1.33,1,4.17,4.17,0,0,1,.81,1.5,6.44,6.44,0,0,1,.27,1.91v7.94h-3.33V51a2.44,2.44,0,0,0-.48-1.61,1.76,1.76,0,0,0-1.43-.58,2.85,2.85,0,0,0-1.32.31,4.42,4.42,0,0,0-1.18.84v9h-3.34V46.43h2.06a.8.8,0,0,1,.83.58Z"/><path class="cls-4" d="M258.84,48.16a7.46,7.46,0,0,1,2.43-1.48,8.22,8.22,0,0,1,2.88-.49,5.24,5.24,0,0,1,2,.36,4.32,4.32,0,0,1,1.49,1,4.42,4.42,0,0,1,.94,1.55,5.84,5.84,0,0,1,.32,2v7.85h-1.52a1.52,1.52,0,0,1-.72-.13,1,1,0,0,1-.41-.56l-.27-.8a10.77,10.77,0,0,1-.91.73,5.27,5.27,0,0,1-.92.52,4.6,4.6,0,0,1-1,.33,6.33,6.33,0,0,1-1.2.1,5,5,0,0,1-1.5-.21,3.32,3.32,0,0,1-1.17-.65,2.94,2.94,0,0,1-.76-1.07,3.79,3.79,0,0,1-.27-1.48,3.07,3.07,0,0,1,.35-1.38,3.5,3.5,0,0,1,1.21-1.26,7.92,7.92,0,0,1,2.28-.93,15.51,15.51,0,0,1,3.56-.42v-.64a2.55,2.55,0,0,0-.49-1.73,1.85,1.85,0,0,0-1.43-.55,3.4,3.4,0,0,0-1.15.17,4.38,4.38,0,0,0-.81.35l-.65.35a1.42,1.42,0,0,1-.7.16,1,1,0,0,1-.59-.17,1.73,1.73,0,0,1-.39-.42Zm6.8,5.54a15.74,15.74,0,0,0-2,.21,5,5,0,0,0-1.29.39,1.72,1.72,0,0,0-.68.56,1.22,1.22,0,0,0-.2.67,1.21,1.21,0,0,0,.41,1,1.87,1.87,0,0,0,1.13.3,3.26,3.26,0,0,0,1.45-.3,4.22,4.22,0,0,0,1.21-.92Z"/><path class="cls-4" d="M282.66,46.84v1.22a.66.66,0,0,1-.17.47,1.13,1.13,0,0,1-.54.25l-1,.21a3.76,3.76,0,0,1,.21,1.27,3.71,3.71,0,0,1-.38,1.68,3.89,3.89,0,0,1-1.05,1.27,4.86,4.86,0,0,1-1.57.81,6.56,6.56,0,0,1-2,.28,6.92,6.92,0,0,1-1.24-.1q-.51.31-.51.69a.51.51,0,0,0,.34.5,3.08,3.08,0,0,0,.91.23c.38,0,.8.07,1.29.08s1,0,1.46.08a11.82,11.82,0,0,1,1.47.21,4.27,4.27,0,0,1,1.28.5,2.67,2.67,0,0,1,.91.92,2.77,2.77,0,0,1,.34,1.46A3.43,3.43,0,0,1,282,60.5a4.34,4.34,0,0,1-1.19,1.4,6.2,6.2,0,0,1-1.92,1,8.25,8.25,0,0,1-2.59.38A10.32,10.32,0,0,1,273.8,63a5.91,5.91,0,0,1-1.75-.73,3.06,3.06,0,0,1-1-1.05,2.51,2.51,0,0,1-.34-1.23,2.08,2.08,0,0,1,.51-1.42,3.48,3.48,0,0,1,1.41-.93,2.14,2.14,0,0,1-.76-.7,2,2,0,0,1-.29-1.12,2.21,2.21,0,0,1,.41-1.18,3.08,3.08,0,0,1,1.26-1,4,4,0,0,1-1.52-1.36,3.57,3.57,0,0,1-.56-2,3.58,3.58,0,0,1,1.45-3,4.77,4.77,0,0,1,1.59-.81,6.76,6.76,0,0,1,2-.28,6.11,6.11,0,0,1,2.83.63Zm-3.33,12.59a.69.69,0,0,0-.2-.53,1.42,1.42,0,0,0-.55-.33,4,4,0,0,0-.82-.18l-1-.08-1.1-.06c-.38,0-.75,0-1.11-.08a2.44,2.44,0,0,0-.7.6,1.23,1.23,0,0,0-.27.78,1.19,1.19,0,0,0,.14.56,1.13,1.13,0,0,0,.46.43,2.79,2.79,0,0,0,.86.29,7.18,7.18,0,0,0,1.34.1,7.75,7.75,0,0,0,1.39-.11,2.75,2.75,0,0,0,.92-.31,1.2,1.2,0,0,0,.5-.47A1.18,1.18,0,0,0,279.33,59.43Zm-3.16-7.22a2,2,0,0,0,1.52-.52,1.89,1.89,0,0,0,.49-1.35,1.82,1.82,0,0,0-.49-1.35,2.59,2.59,0,0,0-3,0,1.86,1.86,0,0,0-.49,1.35,1.88,1.88,0,0,0,.5,1.34A2,2,0,0,0,276.17,52.21Z"/><path class="cls-4" d="M286.84,53.19a3.93,3.93,0,0,0,1,2.57,3.06,3.06,0,0,0,2.2.81,3.92,3.92,0,0,0,1.2-.16,5.18,5.18,0,0,0,.88-.37l.69-.36a1.29,1.29,0,0,1,.61-.16.71.71,0,0,1,.61.29L295,57a5.37,5.37,0,0,1-1.18,1,5.81,5.81,0,0,1-1.33.64,6.85,6.85,0,0,1-1.39.33,10.7,10.7,0,0,1-1.36.09,6.73,6.73,0,0,1-2.44-.43,5.48,5.48,0,0,1-2-1.27A5.81,5.81,0,0,1,284,55.31a8,8,0,0,1-.49-2.9,6.79,6.79,0,0,1,.42-2.39A5.62,5.62,0,0,1,287,46.73a6.27,6.27,0,0,1,2.55-.49,6.11,6.11,0,0,1,2.21.38,4.8,4.8,0,0,1,1.74,1.11,5,5,0,0,1,1.14,1.78,6.78,6.78,0,0,1,.41,2.42,4.94,4.94,0,0,1,0,.62,1,1,0,0,1-.12.39.5.5,0,0,1-.23.2,1.3,1.3,0,0,1-.38,0Zm5.25-2a3.25,3.25,0,0,0-.14-1,2.33,2.33,0,0,0-.44-.84,2.09,2.09,0,0,0-.76-.57,2.67,2.67,0,0,0-1.1-.21,2.54,2.54,0,0,0-1.88.67,3.51,3.51,0,0,0-.89,1.94Z"/><path class="cls-4" d="M297.16,58.92V46.43h2.06a.79.79,0,0,1,.83.58l.2.81c.21-.22.44-.43.67-.63a4.26,4.26,0,0,1,.75-.5,3.84,3.84,0,0,1,.86-.33,4.05,4.05,0,0,1,1-.12,2.89,2.89,0,0,1,1.9.61,3.65,3.65,0,0,1,1.14,1.63,4,4,0,0,1,.75-1,3.82,3.82,0,0,1,1-.69,4.74,4.74,0,0,1,1.11-.4,5.91,5.91,0,0,1,1.18-.12,5.13,5.13,0,0,1,1.87.31,3.44,3.44,0,0,1,1.36.93,4.18,4.18,0,0,1,.85,1.49,6.54,6.54,0,0,1,.29,2v7.94h-3.35V51c0-1.46-.62-2.19-1.88-2.19a2.21,2.21,0,0,0-.78.14,1.66,1.66,0,0,0-.63.42,2,2,0,0,0-.42.69,2.73,2.73,0,0,0-.15.94v7.94H304.4V51a2.48,2.48,0,0,0-.46-1.69,1.82,1.82,0,0,0-1.38-.5,2.35,2.35,0,0,0-1.1.27,4,4,0,0,0-1,.76v9.1Z"/><path class="cls-4" d="M320.26,53.19a4,4,0,0,0,1,2.57,3,3,0,0,0,2.2.81,3.81,3.81,0,0,0,1.19-.16,5.3,5.3,0,0,0,.89-.37l.69-.36a1.29,1.29,0,0,1,.61-.16.71.71,0,0,1,.61.29l1,1.21a5.37,5.37,0,0,1-1.18,1,6,6,0,0,1-1.33.64,6.94,6.94,0,0,1-1.4.33,10.55,10.55,0,0,1-1.35.09,6.73,6.73,0,0,1-2.44-.43,5.43,5.43,0,0,1-2-1.27,5.93,5.93,0,0,1-1.32-2.09,7.83,7.83,0,0,1-.49-2.9,6.79,6.79,0,0,1,.42-2.39,5.54,5.54,0,0,1,3.12-3.29,6.26,6.26,0,0,1,2.54-.49,6.07,6.07,0,0,1,2.21.38A4.76,4.76,0,0,1,327,47.73a5,5,0,0,1,1.14,1.78,6.79,6.79,0,0,1,.4,2.42,5.22,5.22,0,0,1,0,.62,1.5,1.5,0,0,1-.12.39.55.55,0,0,1-.23.2,1.35,1.35,0,0,1-.38,0Zm5.26-2a3.59,3.59,0,0,0-.14-1,2.33,2.33,0,0,0-.44-.84,2.17,2.17,0,0,0-.76-.57,2.68,2.68,0,0,0-1.11-.21,2.52,2.52,0,0,0-1.87.67,3.45,3.45,0,0,0-.89,1.94Z"/><path class="cls-4" d="M333.69,47.88a8,8,0,0,1,.78-.66,4.69,4.69,0,0,1,.86-.52,4.36,4.36,0,0,1,1-.34,5.11,5.11,0,0,1,1.14-.12,4.33,4.33,0,0,1,1.81.35,3.72,3.72,0,0,1,1.33,1,4.17,4.17,0,0,1,.81,1.5,6.44,6.44,0,0,1,.27,1.91v7.94h-3.33V51a2.38,2.38,0,0,0-.49-1.61,1.74,1.74,0,0,0-1.43-.58,2.91,2.91,0,0,0-1.32.31,4.54,4.54,0,0,0-1.17.84v9h-3.35V46.43h2.06a.81.81,0,0,1,.84.58Z"/><path class="cls-4" d="M348.47,59.11a4.39,4.39,0,0,1-1.51-.24,3.21,3.21,0,0,1-1.1-.71,3.09,3.09,0,0,1-.68-1.12,4.51,4.51,0,0,1-.23-1.48V48.83h-1.17a.69.69,0,0,1-.46-.17.66.66,0,0,1-.18-.51V46.84l2-.36.68-3.24a.68.68,0,0,1,.74-.54h1.75v3.8h3.22v2.33H348.3v6.52a1.24,1.24,0,0,0,.25.82.85.85,0,0,0,.7.3,1.31,1.31,0,0,0,.42,0l.29-.12.22-.12a.42.42,0,0,1,.21-.06.41.41,0,0,1,.25.07.88.88,0,0,1,.19.22l1,1.6a4.87,4.87,0,0,1-1.56.83A6,6,0,0,1,348.47,59.11Z"/><path class="cls-4" d="M369,44.71a1.29,1.29,0,0,1-.35.4.69.69,0,0,1-.45.13,1.1,1.1,0,0,1-.58-.19c-.2-.12-.44-.26-.72-.4a7,7,0,0,0-.94-.41,3.92,3.92,0,0,0-1.25-.18,2.74,2.74,0,0,0-1.89.56,1.86,1.86,0,0,0-.63,1.47,1.37,1.37,0,0,0,.35,1,2.84,2.84,0,0,0,.9.66,9,9,0,0,0,1.28.5l1.47.48a12.48,12.48,0,0,1,1.46.61,5.05,5.05,0,0,1,1.28.89,4,4,0,0,1,.91,1.3,4.52,4.52,0,0,1,.35,1.87,6,6,0,0,1-.42,2.25,5.27,5.27,0,0,1-1.21,1.83,5.56,5.56,0,0,1-1.94,1.23,7.2,7.2,0,0,1-2.62.44,7.82,7.82,0,0,1-1.67-.17,9.51,9.51,0,0,1-1.6-.47,8.9,8.9,0,0,1-1.45-.72,6.71,6.71,0,0,1-1.19-1l1.07-1.72a1.07,1.07,0,0,1,.35-.32.87.87,0,0,1,.46-.13,1.25,1.25,0,0,1,.69.24l.84.54a6.64,6.64,0,0,0,1.1.53,4.12,4.12,0,0,0,1.49.24,3,3,0,0,0,2-.58,2.11,2.11,0,0,0,.7-1.73,1.61,1.61,0,0,0-.35-1.08,2.91,2.91,0,0,0-.9-.69,6.72,6.72,0,0,0-1.27-.48c-.48-.13-1-.28-1.47-.44a12.32,12.32,0,0,1-1.46-.58,4.78,4.78,0,0,1-1.28-.9,4.23,4.23,0,0,1-.9-1.38,5.33,5.33,0,0,1-.34-2,4.83,4.83,0,0,1,1.52-3.54,5.81,5.81,0,0,1,1.85-1.15,6.77,6.77,0,0,1,2.51-.43,8.48,8.48,0,0,1,2.94.49A6.61,6.61,0,0,1,369.94,43Z"/><path class="cls-4" d="M378,46.24a7.14,7.14,0,0,1,2.55.44,5.49,5.49,0,0,1,3.25,3.3,8.21,8.21,0,0,1,0,5.36,5.7,5.7,0,0,1-1.27,2,5.55,5.55,0,0,1-2,1.28,6.93,6.93,0,0,1-2.55.45,7.06,7.06,0,0,1-2.58-.45,5.55,5.55,0,0,1-2-1.28,5.86,5.86,0,0,1-1.28-2,8.21,8.21,0,0,1,0-5.36,5.91,5.91,0,0,1,1.28-2,5.69,5.69,0,0,1,2-1.28A7.27,7.27,0,0,1,378,46.24Zm0,10.35a2.4,2.4,0,0,0,2.12-1,5.15,5.15,0,0,0,.69-2.94,5.13,5.13,0,0,0-.69-2.93,2.4,2.4,0,0,0-2.12-1,2.44,2.44,0,0,0-2.16,1,5.13,5.13,0,0,0-.69,2.93,5.15,5.15,0,0,0,.69,2.94A2.44,2.44,0,0,0,378,56.59Z"/><path class="cls-4" d="M398.42,48.83v6.52a1.24,1.24,0,0,0,.25.82.89.89,0,0,0,.71.3,1.24,1.24,0,0,0,.41,0l.29-.12.22-.12a.43.43,0,0,1,.22-.06.4.4,0,0,1,.24.07.72.72,0,0,1,.19.22l1,1.6a4.87,4.87,0,0,1-1.56.83,6.15,6.15,0,0,1-1.81.27,4.29,4.29,0,0,1-1.5-.24,3,3,0,0,1-1.1-.71,3,3,0,0,1-.68-1.12,4.26,4.26,0,0,1-.23-1.48V48.83h-4.79V58.92H387V48.83l-1-.17a1.37,1.37,0,0,1-.61-.27.67.67,0,0,1-.24-.56V46.5H387v-.82a5.35,5.35,0,0,1,.33-1.93,4,4,0,0,1,.95-1.47,4.32,4.32,0,0,1,1.52-.93,6.07,6.07,0,0,1,2-.32,5.53,5.53,0,0,1,.83,0,7.37,7.37,0,0,1,.79.16l-.07,1.65a.49.49,0,0,1-.32.49,1.76,1.76,0,0,1-.66.12,3.2,3.2,0,0,0-.91.11,1.54,1.54,0,0,0-.69.37,1.56,1.56,0,0,0-.42.7,3.41,3.41,0,0,0-.15,1.09v.73h5.07l.7-3.26a.67.67,0,0,1,.74-.54h1.73v3.8h3.22v2.33Z"/><path class="cls-4" d="M421.51,46.43l-3.92,12.49h-2.71a.58.58,0,0,1-.37-.13.87.87,0,0,1-.24-.45l-2-6.76c-.08-.26-.15-.52-.21-.77s-.12-.51-.16-.77l-.18.78q-.09.39-.21.78l-2.06,6.74a.71.71,0,0,1-.73.58h-2.57l-3.92-12.49h2.66a1.07,1.07,0,0,1,.61.17.82.82,0,0,1,.34.44l1.54,6.17c.09.4.18.78.25,1.15l.21,1.11c.09-.37.2-.73.31-1.11s.22-.75.34-1.15l1.83-6.2a.84.84,0,0,1,.33-.42.92.92,0,0,1,.57-.17h1.48a1,1,0,0,1,.59.17.81.81,0,0,1,.34.42l1.77,6.2c.11.39.22.77.32,1.15s.21.75.29,1.13c.07-.37.14-.74.22-1.12s.16-.76.27-1.16L418.07,47a.85.85,0,0,1,.33-.44,1,1,0,0,1,.57-.17Z"/><path class="cls-4" d="M422.59,48.16A7.61,7.61,0,0,1,425,46.68a8.18,8.18,0,0,1,2.88-.49,5.19,5.19,0,0,1,2,.36,4.14,4.14,0,0,1,1.49,1,4.42,4.42,0,0,1,.94,1.55,5.6,5.6,0,0,1,.33,2v7.85h-1.53a1.57,1.57,0,0,1-.72-.13,1,1,0,0,1-.4-.56l-.27-.8a10.84,10.84,0,0,1-.92.73,5.19,5.19,0,0,1-.91.52,4.78,4.78,0,0,1-1,.33,6.36,6.36,0,0,1-1.21.1,5,5,0,0,1-1.5-.21,3.5,3.5,0,0,1-1.17-.65,2.94,2.94,0,0,1-.76-1.07A4,4,0,0,1,422,55.7a3,3,0,0,1,.35-1.38,3.39,3.39,0,0,1,1.2-1.26,7.92,7.92,0,0,1,2.28-.93,15.6,15.6,0,0,1,3.57-.42v-.64a2.55,2.55,0,0,0-.5-1.73,1.84,1.84,0,0,0-1.43-.55,3.44,3.44,0,0,0-1.15.17,4.58,4.58,0,0,0-.8.35l-.65.35a1.45,1.45,0,0,1-.7.16,1,1,0,0,1-.59-.17,1.77,1.77,0,0,1-.4-.42Zm6.81,5.54a15.92,15.92,0,0,0-2,.21,5,5,0,0,0-1.29.39,1.68,1.68,0,0,0-.67.56,1.15,1.15,0,0,0-.2.67,1.21,1.21,0,0,0,.4,1,1.87,1.87,0,0,0,1.13.3,3.26,3.26,0,0,0,1.45-.3,4.12,4.12,0,0,0,1.22-.92Z"/><path class="cls-4" d="M438.41,48.49a5.73,5.73,0,0,1,1.37-1.68,2.81,2.81,0,0,1,1.82-.62,2.2,2.2,0,0,1,1.38.4l-.22,2.47a.57.57,0,0,1-.18.33.61.61,0,0,1-.35.09,5.34,5.34,0,0,1-.56,0,4.18,4.18,0,0,0-.68-.06,2.29,2.29,0,0,0-.81.14,2.14,2.14,0,0,0-.64.37,2.49,2.49,0,0,0-.5.6,5.42,5.42,0,0,0-.42.8v7.64h-3.34V46.43h2a1,1,0,0,1,.7.18,1.09,1.09,0,0,1,.28.63Z"/><path class="cls-4" d="M446.79,53.19a3.88,3.88,0,0,0,1,2.57,3,3,0,0,0,2.19.81,3.92,3.92,0,0,0,1.2-.16,5.18,5.18,0,0,0,.88-.37l.69-.36a1.29,1.29,0,0,1,.61-.16.7.7,0,0,1,.61.29l1,1.21a5.37,5.37,0,0,1-1.18,1,5.81,5.81,0,0,1-1.33.64A6.85,6.85,0,0,1,451,59a10.7,10.7,0,0,1-1.36.09,6.77,6.77,0,0,1-2.44-.43,5.48,5.48,0,0,1-2-1.27,5.81,5.81,0,0,1-1.33-2.09,8,8,0,0,1-.49-2.9,6.79,6.79,0,0,1,.42-2.39A5.62,5.62,0,0,1,447,46.73a6.27,6.27,0,0,1,2.55-.49,6.11,6.11,0,0,1,2.21.38,4.8,4.8,0,0,1,1.74,1.11,5,5,0,0,1,1.14,1.78,6.78,6.78,0,0,1,.41,2.42,4.94,4.94,0,0,1,0,.62,1,1,0,0,1-.12.39.5.5,0,0,1-.23.2,1.3,1.3,0,0,1-.38,0Zm5.25-2a3.25,3.25,0,0,0-.14-1,2.33,2.33,0,0,0-.44-.84,2.09,2.09,0,0,0-.76-.57,2.67,2.67,0,0,0-1.1-.21,2.54,2.54,0,0,0-1.88.67,3.51,3.51,0,0,0-.89,1.94Z"/></g></g></svg>